<svg xmlns="http://www.w3.org/2000/svg" width="1991.895" height="2082.186" viewBox="0 0 1991.895 2082.186"><path fill="#FFB000" d="M1658.699 918.71v1163.476h234.406v-90.866h-144.858v-388.71h144.858v-89.547h-144.858V971.276h144.858V881.73H1781.16c-39.141 16.765-81.672 29.558-122.461 36.98zm-492.755 19.219c-49.479 0-115.043-2.846-185.196-6.065v1150.322h89.549V1602.61h100.083v479.576h89.547V925.554c-29.497 8.226-60.913 12.375-93.983 12.375zm4.436 575.133h-100.083V971.276h100.083v541.786zm286.525-554.121c37.656 0 68.298 30.64 68.298 68.301h89.547c0-38.552-13.9-73.915-36.944-101.357-33.107-1.183-74.606-12.255-98.049-54.83a158.487 158.487 0 0 0-22.852-1.66c-87.038 0-157.85 70.813-157.85 157.848 0 3.695.457 7.378 1.363 10.962l224.611 889.697c-2.509 35.39-32.107 63.418-68.125 63.418-37.664 0-68.303-30.64-68.303-68.3h-89.547c0 87.035 70.812 157.848 157.85 157.848 87.035 0 157.845-70.812 157.845-157.848 0-3.695-.457-7.377-1.362-10.961l-224.613-889.697c2.512-35.392 32.107-63.421 68.131-63.421zm-519.106 12.335v-41.388c-75.063-3.434-156.558-6.924-234.403-7.912v1160.209h234.403v-90.866H792.944v-388.71h144.854v-89.547H792.944V971.276h144.855zm-418.763 72.302a480.637 480.637 0 0 1-28.993 17.18c-19.911 10.861-40.183 19.989-60.556 27.327v994.101H663.89v-90.866H519.036v-947.742zm-190.038 65.829c-6.332.386-12.635.592-18.894.592-33.734 0-61.879-9.031-81.392-26.117-18.911-16.561-29.326-40.528-29.326-67.489 0-20.009 5.436-40.719 15.568-60.945-.907-.917-1.807-1.84-2.72-2.753l-.568-.568a1349.888 1349.888 0 0 0-11.629 23.071c-26.587 54.147-27.934 68.479-27.934 70.802 0 10.518-8.44 19.256-18.934 19.972 0 0-.594.04-1.717.04-2.132 0-7.924-.214-15.65-2.152v1018.327h89.544v-193.116c57.784-61.021 102.975-131.144 134.429-208.709 32.636-80.48 49.185-165.513 49.185-252.728 0-87.212-16.549-172.242-49.185-252.726a669.533 669.533 0 0 0-30.777-65.501zm-103.65 635.86v-635.263c61.228 93.658 94.067 203.121 94.067 317.629 0 114.512-32.84 223.975-94.067 317.634z"/><path fill="#FFF" d="M905.589 251.377S930.106 184 884.106 142c-19.8-18.078 4.087-45.479 27.979-39.618 31.619 7.755 63.236 61.272-6.496 148.995zm-763.785-1.531s-48.996 35.748-85.189 78.32c-36.194 42.571-102.475-70.354 85.189-78.32zm1701.209 145.135s50.678-35.452 80.519-81.127c29.844-45.675 117.683 57.027-80.519 81.127zm-388.391-239.225s17.026-68.66 68.58-109.279c51.555-40.619-93.806-98.489-68.58 109.279zM58.104 979.999s-24-60 0-112-142-25.266 0 112zm1803.41-138.637s51.589-33.666 89.214-86.629c37.627-52.961 101.146 73.506-89.214 86.629z"/><path fill="#FFF" d="M684.667 825.282c13.797-32.463 21.438-64.887 21.438-95.283 0-154-216-156-216-156 203.568 0 671.27-469.999 138-469.999-338 0-617 244-617 390 0 145.999 145 107.999 145 107.999s-14-24-14-74c0-49.999 118-357.999 494-357.999 256.001 0-84.881 382.589-228.881 382.589 0 0 80.881-79.496 80.881-136.589 0-40.402-22-75-64-75-42.56 0-104 33-104 33 114 114-243 399.999-243 537.999s75 134 75 134c0-54 192-364 192-364-16-10-74-10-74-10s300-62 300 65c0 31.736-6.573 60.795-17.591 87.066-8.278-.041-16.42-.066-24.409-.066-310 0-394 266-218 266 117.514 0 233.635-71.121 309.438-161.023-43.85-25.062-75.807-23.594-75.807-23.594 34.154-2.234 58.908-3.326 97.107-3.609v-.002l11.758-.062-.003.004c181.556-.564 392.748 16.217 513.347 16.217 242 0 301-231.859 301-231.859-207.905 134.237-528.929 141.131-782.278 139.211zm130.112-492.919s23.126-38.316 22.236-82.587l15.354-7.677c-3.488 26.718-16.305 57.59-37.59 90.264zm38.562-104.67c0 .951-.015 1.908-.042 2.871l-17.117 7.33c-.49-4.01-1.203-8.045-2.173-12.082l19.031-5.709a98.29 98.29 0 0 1 .301 7.59zM628.104 119c80.46 0 140.57 11.224 178.657 33.359 22.693 13.189 36.937 29.75 43.073 50.211l-21.549 6.231C809.519 166.17 756.237 127.008 628.104 119zm-155 297c0 14.875-7.025 32.508-17.025 49.985 0 0 13.711-32.769 5.87-60.968l9.47-6.137a87.33 87.33 0 0 1 1.685 17.12zm-95.808-50.378c15.7-5.368 32.621-9.622 46.809-9.622 24.184 0 37.922 14.455 44.379 32.305l-9.826 7.885c-9.317-19.438-31.95-34.378-81.362-30.568zm-60.192 625.377c0-48.768 72.953-72.5 178.343-82.697-74.62 76.371-178.343 106.388-178.343 82.697zm331.507-332.96c-28.853-25.262-77.297-51.649-158.646-69.04.511.006 52.653.777 103.628 19.572 27.184 10.023 48.714 23.06 64.57 38.998l-9.552 10.47zm8.46 7.911l8.225-10.556c17.111 20.55 25.769 45.398 25.805 74.414.004.124.004.19.004.19 0-.064-.004-.127-.004-.19-.07-2.577-1.564-31.353-34.03-63.858zm570.21 146.674c-117.23 25.496-295.925 42.546-565.214 27.488l22.486.17c20.761.158 39.283.234 56.624.234 160.933 0 334.584-6.759 489.474-43.403l-3.37 15.511zm35.663-8.475a894.612 894.612 0 0 1-18.264 4.524l7.623-16.914c5.47-1.411 10.909-2.864 16.325-4.355l-5.684 16.745zm6.692-1.76l5.87-16.907c58.1-16.441 112.966-37.637 162.791-64.93 0 0-33.599 45.662-168.661 81.837z"/><path fill="#FFF" d="M1786.105 510.999s38 39 38 129c0 148-250 274-250 160 0-224 342-468.199 342-527.999 0-21.932-130.646-48.855-223.396-69.501C1708.054 137.688 1739.279 0 1662.96 0c-52.854 0-170.854 90-170.854 158 0 37.328 77.143 71.04 146.737 97.497-27.535 47.153-259.243 435.504-421.756 435.504-23.436 0-29.109-28.504-21.973-69.701 98.263-22.199 322.545-178.106 322.545-338.354 0-42.607-21.488-70.944-65.572-70.944-176.473 0-335.562 194.178-362.869 355.283C1047.001 609.31 922.568 727 853.105 727c-23.436 0-29.109-28.504-21.973-69.701 98.264-22.199 322.545-178.105 322.545-338.354 0-42.607-21.487-70.943-65.571-70.943-194 0-365.001 234.664-365.001 402.085 0 145.578 43.102 151.914 79 151.914 85.501 0 230.252-129.082 283.049-179.014 1.816 136.918 45.783 143.016 80.934 143.016 246.019 0 500.019-469.001 500.019-469.001s.093-17.322-16.366-37.392c52.732 19.754 98.366 35.103 98.366 44.392 0 22-266 235.616-266 483.999 0 34 4 118 102 118 131 0 364-88 364-240s-162.002-155.002-162.002-155.002zm-284.797-244.214c.891 4.992 1.352 10.391 1.352 16.16 0 5.196-.258 10.363-.752 15.5 0 0-.876-12.591-8.756-26.828l8.156-4.832zm-49.221-39.784c16.871 0 29.67 4.839 38.039 14.384 3.655 4.169 6.537 9.341 8.614 15.367l-11.114 6.338c-12.896-17.138-37.327-33.561-83.515-31.058-16.364.887 32.083-5.031 47.976-5.031zm-80.764 108.632c27.119-16.328 64.991-30.393 110.782-24.581 0 0-20.53 8.804-42.646 21.101 1.089 3.177 1.627 6.616 1.627 9.849 0 93.11-163.361 187.18-230.602 221.955 29.662-85.514 91.97-189.478 160.839-228.324zm-235.256-35.085c1.14 5.526 1.727 11.587 1.727 18.12 0 5.195-.258 10.363-.752 15.5 0 0-.944-13.567-9.686-28.46l8.711-5.16zm-48.845-37.825c16.871 0 29.67 4.84 38.039 14.385 3.28 3.74 5.931 8.297 7.943 13.546l-11.626 6.63c-13.187-16.57-37.52-31.957-82.331-29.529-16.366.886 32.081-5.032 47.975-5.032zM954.659 414.462s9.793-12.052 27.678-25.742c16.723-13.397 34.055-23.37 51.588-28.595 22.234-8.113 48.547-12.68 78.181-8.919 0 0-16.807 7.206-36.386 17.686a30.9 30.9 0 0 1 1.386 9.108c0 93.109-163.362 187.179-230.603 221.954 21.829-62.941 61.35-135.88 108.156-185.492zM812.97 678.765c-.744 14.23.533 26.151 3.817 35.695l-4.86 3.191c-1.277-10.167-1.079-22.946 1.043-38.886zm.42 47.049l6.385-4.386c1.424 2.728 3.053 5.211 4.91 7.418 6.953 8.262 16.607 12.629 27.922 12.629 16.982 0 33.986-4.744 52.982-12.207 0 .001-77.852 56.169-92.199-3.454zm405.714-8.889c-26.007 4.455-50.492-7.191-41.654-73.635-1.184 22.619 2.735 39.412 11.715 50.082 6.954 8.262 16.61 12.629 27.923 12.629 2.09 0 4.181-.073 6.275-.213l-4.259 11.137zm11.581-2.923l4.779-9.748c11.063-2.016 22.426-5.674 34.607-10.46 0 0-18.656 13.459-39.386 20.208zm423.968-520.199c-31.361-7.467-52.548-13.647-52.548-17.803 0-16 20-68 48-68 20.359 0 11.113 55.506 4.548 85.803zm-28.648-167.85C1610.151 28.4 1653.485 15 1662.96 15c10.155 0 17.334 3.096 22.592 9.742 1.67 2.111 3.362 4.869 4.922 8.44l-11.43 11.82c-10.219-13.584-26.639-23.125-53.039-19.049zm68.047 18.195c2.995 12.536 4.378 31.004 1.809 58.233 0 0 .339-27.306-11.754-49.476l9.945-8.757zm177.486 243.545c9.455-9.768-35.79-36.316-35.79-36.316 45.263 12.353 58.661 19.27 63.357 22.623-1.49 4.336-5.026 14.818-20.939 34.027-16.14 19.482-38.768 43.295-64.964 70.869-17.549 18.469-36.582 38.501-56.062 59.774l-14.122-6.331c32.072-40.027 74.062-88.386 128.52-144.646zm-132.564 149.719l14.089 5.726a2062.876 2062.876 0 0 0-7.857 8.673l-15.879-2.121c3.105-3.999 6.321-8.09 9.647-12.278zM1719.106 463h16.089c-29.864 33.645-59.864 69.875-86.364 107.583 0 0 16.851-37.063 70.275-107.583zm97.03 67.05c13.221 2.785 29.312 7.469 45.217 15.336 46.382 22.942 70.479 62.053 71.692 116.275l-13.103 11.997c-1.705-43.6-24.26-97.221-103.806-143.608zm81.84 228.158s18.482-27.948 21.624-67.687l12.815-11.173c-2.817 27.492-14.36 53.963-34.439 78.86z"/></svg>