<svg version="1" xmlns="http://www.w3.org/2000/svg" width="346.667" height="346.667" viewBox="0 0 260.000000 260.000000"><path d="M151.5 31C116.4 34.7 81.8 51 58 74.9 43.4 89.7 37.1 101 37 113c0 8.2 1.7 13 6.4 17.6 4.8 4.8 12.4 7.1 19.8 6l4.5-.7-1.4-5.2c-2.6-10.1-1.1-17.7 6.2-31.5C90.2 65.6 125.8 45 166.3 45c12.1 0 16.1 1.2 19.6 5.6 5.2 6.5.4 21.4-11.7 36.5-11.2 14-26.1 26.8-38.7 33.1-5.1 2.6-12.6 5.1-13.3 4.4-.2-.2 1.2-2.1 3.1-4.3 4.6-5.1 10.1-13.9 11.7-18.7 2.8-8.6-1.5-18.5-8.9-20.7-4.6-1.4-11.7-.1-20.1 3.7l-5.7 2.5 2.4 4.6c2.7 5.5 2.8 8.1.7 15.4-2.5 8.5-8 18.2-19.3 33.9-5.8 8-14.1 19.6-18.7 25.9-4.5 6.2-9.9 14.8-12 19-3.8 7.4-3.9 7.9-3.9 18.1 0 8.9.4 11.2 2.3 15.2 2.7 5.5 7.4 9.8 10.6 9.8 1.9 0 2.8-1.3 5.5-8.4 3.5-8.9 14.5-29.4 28.6-53.1 4.8-7.9 8.4-14.9 8-15.5-.3-.5-1.8-1-3.3-1-3.3 0-6.9-1.9-3.7-2 1.1 0 6.7-.5 12.4-1 21.7-2 37.4 2 41.5 10.4 1.8 3.6 1.8 4.7.8 11.8-1.7 11.6-1.4 11.4-12.9 12.2-12.6.8-21.2 2.7-30.4 6.5-27.1 11.3-39.1 37.4-21.9 47.5 2.9 1.7 5.1 2.1 12.5 2 14-.1 28.4-4.9 42.2-14.1 6.1-4 21.3-17.9 21.3-19.5 0-.5-2.1-1.9-4.7-3.1l-4.8-2.2 13-.3c12.3-.3 59.2 1.1 81.3 2.4l10.2.7v-17.6l-5.7.7c-3.2.3-17.3.8-31.3 1-14 .2-21.4.2-16.5 0 14.4-.5 44.4-2.4 49.1-3.1 3.5-.4 4.4-1 4.4-2.5 0-1.6-.5-1.8-3.2-1.3-8.5 1.4-31.3 2.5-53.1 2.5-22.4 0-23.9-.1-23.2-1.8 1.8-4.6 3.5-13.1 3.5-17.2 0-16.6-12.7-28.4-34.7-32.3l-6.3-1.1 5.3-1.3c20.6-5.3 49.8-27.7 63.1-48.5 11.2-17.7 10.6-32.3-1.8-40.5-11.3-7.7-33.9-10.9-58.1-8.3zm29.2 3.6c-.3.3-1.2.4-1.9.1-.8-.3-.5-.6.6-.6 1.1-.1 1.7.2 1.3.5zm17.7 3.5c6.8 2.6 12.3 6.4 14.1 9.8 1.4 2.8 1.4 3-.6 3.6-1.1.4-2.1.5-2.3.3-4.6-7.4-10.5-11.6-20.4-14.9l-5.7-1.9 5 .6c2.7.3 7.2 1.4 9.9 2.5zM214 57c-1.9 1.2-3 1.2-3 .1 0-1 3.1-2 4-1.4.2.2-.2.8-1 1.3zm-1.4 9.1l-1.6 3.4.6-4c.7-4.6 1.7-6.7 2.2-4.4.2.9-.4 3.2-1.2 5zm-82.1 20.4c2.5 2.4 3.2 4.5 1.7 4.5-.5 0-1.7-.9-2.6-1.9-1-1-3.7-2.4-6.2-3-2.4-.6-4.4-1.3-4.4-1.6 0-.3 2-.5 4.5-.5 3.5 0 5.2.6 7 2.5zm3.2 12.7c-.2 1.3-.4.3-.4-2.2s.2-3.5.4-2.3c.2 1.3.2 3.3 0 4.5zm20.6 36.4c9.4 2.4 19.6 8.2 18.2 10.3-.4.7-2.3-.1-5.3-2.1-2.6-1.8-8.5-4.7-13.2-6.5-9.3-3.5-9.2-4.2.3-1.7zm23.2 15.4c2.2 4.3 1.8 4.9-1 1.5-2.6-3.2-3.1-4.5-1.5-4.5.5 0 1.6 1.3 2.5 3zm-43 53.4c-8.5 7.3-23.1 14.5-29.2 14.6-2.9 0-3.3-.3-3.3-2.6 0-6.9 17.1-14.8 33-15.3l3.5-.1-4 3.4z"/></svg>