<?xml version="1.0" encoding="utf-8"?>
<!-- Generator: Adobe Illustrator 16.0.0, SVG Export Plug-In . SVG Version: 6.00 Build 0)  -->
<!DOCTYPE svg PUBLIC "-//W3C//DTD SVG 1.1//EN" "http://www.w3.org/Graphics/SVG/1.1/DTD/svg11.dtd">
<svg version="1.1" id="Calque_2" xmlns="http://www.w3.org/2000/svg" xmlns:xlink="http://www.w3.org/1999/xlink" x="0px" y="0px"
	 width="1991.895px" height="2082.186px" viewBox="0 0 1991.895 2082.186" enable-background="new 0 0 1991.895 2082.186"
	 xml:space="preserve">
<path fill="#FFB000" d="M1658.699,918.71v1163.476h234.406v-90.866h-144.858v-388.71h144.858v-89.547h-144.858V971.276h144.858
	V881.73H1781.16C1742.019,898.495,1699.488,911.288,1658.699,918.71z"/>
<path fill="#FFB000" d="M1165.944,937.929c-49.479,0-115.043-2.846-185.196-6.065v1150.322h89.549v-479.576h100.083v479.576h89.547
	V925.554C1230.43,933.78,1199.014,937.929,1165.944,937.929z M1170.38,1513.062h-100.083V971.276h100.083V1513.062z"/>
<path fill="#FFB000" d="M1456.905,958.941c37.656,0,68.298,30.64,68.298,68.301h89.547c0-38.552-13.9-73.915-36.944-101.357
	c-33.107-1.183-74.606-12.255-98.049-54.83c-7.464-1.087-15.093-1.66-22.852-1.66c-87.038,0-157.85,70.813-157.85,157.848
	c0,3.695,0.457,7.378,1.363,10.962l224.611,889.697c-2.509,35.39-32.107,63.418-68.125,63.418c-37.664,0-68.303-30.64-68.303-68.3
	h-89.547c0,87.035,70.812,157.848,157.85,157.848c87.035,0,157.845-70.812,157.845-157.848c0-3.695-0.457-7.377-1.362-10.961
	l-224.613-889.697C1391.286,986.97,1420.881,958.941,1456.905,958.941z"/>
<path fill="#FFB000" d="M937.799,971.276v-41.388c-75.063-3.434-156.558-6.924-234.403-7.912v1160.209h234.403v-90.866H792.944
	v-388.71h144.854v-89.547H792.944V971.276H937.799z"/>
<path fill="#FFB000" d="M519.036,1043.578c-9.515,6.093-19.188,11.831-28.993,17.18c-19.911,10.861-40.183,19.989-60.556,27.327
	v994.101h234.403v-90.866H519.036V1043.578z"/>
<path fill="#FFB000" d="M328.998,1109.407c-6.332,0.386-12.635,0.592-18.894,0.592c-33.734,0-61.879-9.031-81.392-26.117
	c-18.911-16.561-29.326-40.528-29.326-67.489c0-20.009,5.436-40.719,15.568-60.945c-0.907-0.917-1.807-1.84-2.72-2.753l-0.568-0.568
	c-4.185,8.123-8.075,15.834-11.629,23.071c-26.587,54.147-27.934,68.479-27.934,70.802c0,10.518-8.44,19.256-18.934,19.972
	c0,0-0.594,0.04-1.717,0.04c-2.132,0-7.924-0.214-15.65-2.152v915.147v103.18h89.544v-193.116
	c57.784-61.021,102.975-131.144,134.429-208.709c32.636-80.48,49.185-165.513,49.185-252.728
	c0-87.212-16.549-172.242-49.185-252.726C350.663,1152.435,340.388,1130.592,328.998,1109.407z M225.348,1745.267v-635.263
	c61.228,93.658,94.067,203.121,94.067,317.629C319.415,1542.145,286.575,1651.608,225.348,1745.267z"/>
<path fill="#FFFFFF" d="M905.589,251.377c0,0,24.517-67.377-21.483-109.377c-19.8-18.078,4.087-45.479,27.979-39.618
	C943.704,110.137,975.321,163.654,905.589,251.377z"/>
<path fill="#FFFFFF" d="M141.804,249.846c0,0-48.996,35.748-85.189,78.32C20.421,370.737-45.86,257.812,141.804,249.846z"/>
<path fill="#FFFFFF" d="M1843.013,394.981c0,0,50.678-35.452,80.519-81.127C1953.376,268.179,2041.215,370.881,1843.013,394.981z"/>
<path fill="#FFFFFF" d="M1454.622,155.756c0,0,17.026-68.66,68.58-109.279C1574.757,5.858,1429.396-52.012,1454.622,155.756z"/>
<path fill="#FFFFFF" d="M58.104,979.999c0,0-24-60,0-112S-83.896,842.733,58.104,979.999z"/>
<path fill="#FFFFFF" d="M1861.514,841.362c0,0,51.589-33.666,89.214-86.629C1988.355,701.772,2051.874,828.239,1861.514,841.362z"/>
<path fill="#FFFFFF" d="M684.667,825.282c13.797-32.463,21.438-64.887,21.438-95.283c0-154-216-156-216-156
	c203.568,0,671.27-469.999,138-469.999c-338,0-617,244-617,390c0,145.999,145,107.999,145,107.999s-14-24-14-74
	c0-49.999,118-357.999,494-357.999c256.001,0-84.881,382.589-228.881,382.589c0,0,80.881-79.496,80.881-136.589
	c0-40.402-22-75-64-75c-42.56,0-104,33-104,33c114,114-243,399.999-243,537.999s75,134,75,134c0-54,192-364,192-364
	c-16-10-74-10-74-10s300-62,300,65c0,31.736-6.573,60.795-17.591,87.066c-8.278-0.041-16.42-0.066-24.409-0.066
	c-310,0-394,266-218,266c117.514,0,233.635-71.121,309.438-161.023c-43.85-25.062-75.807-23.594-75.807-23.594
	c34.154-2.234,58.908-3.326,97.107-3.609v-0.002l11.758-0.062l-0.003,0.004c181.556-0.564,392.748,16.217,513.347,16.217
	c242,0,301-231.859,301-231.859C1259.04,820.308,938.016,827.202,684.667,825.282z M814.779,332.363
	c0,0,23.126-38.316,22.236-82.587l15.354-7.677C848.881,268.817,836.064,299.689,814.779,332.363z M853.341,227.693
	c0,0.951-0.015,1.908-0.042,2.871l-17.117,7.33c-0.49-4.01-1.203-8.045-2.173-12.082l19.031-5.709
	C853.232,222.586,853.341,225.112,853.341,227.693z M628.104,119c80.46,0,140.57,11.224,178.657,33.359
	c22.693,13.189,36.937,29.75,43.073,50.211l-21.549,6.231C809.519,166.17,756.237,127.008,628.104,119z M473.104,416
	c0,14.875-7.025,32.508-17.025,49.985c0,0,13.711-32.769,5.87-60.968l9.47-6.137C472.564,404.573,473.104,410.381,473.104,416z
	 M377.296,365.622c15.7-5.368,32.621-9.622,46.809-9.622c24.184,0,37.922,14.455,44.379,32.305l-9.826,7.885
	C449.341,376.752,426.708,361.812,377.296,365.622z M317.104,990.999c0-48.768,72.953-72.5,178.343-82.697
	C420.827,984.673,317.104,1014.69,317.104,990.999z M648.611,658.039c-28.853-25.262-77.297-51.649-158.646-69.04
	c0.511,0.006,52.653,0.777,103.628,19.572c27.184,10.023,48.714,23.06,64.57,38.998L648.611,658.039z M657.071,665.95l8.225-10.556
	c17.111,20.55,25.769,45.398,25.805,74.414c0.004,0.124,0.004,0.19,0.004,0.19c0-0.064-0.004-0.127-0.004-0.19
	C691.031,727.231,689.537,698.455,657.071,665.95z M1227.281,812.624c-117.23,25.496-295.925,42.546-565.214,27.488l22.486,0.17
	c20.761,0.158,39.283,0.234,56.624,0.234c160.933,0,334.584-6.759,489.474-43.403L1227.281,812.624z M1262.944,804.149
	c-5.9,1.528-11.985,3.038-18.264,4.524l7.623-16.914c5.47-1.411,10.909-2.864,16.325-4.355L1262.944,804.149z M1269.636,802.389
	l5.87-16.907c58.1-16.441,112.966-37.637,162.791-64.93C1438.297,720.552,1404.698,766.214,1269.636,802.389z"/>
<path fill="#FFFFFF" d="M1786.105,510.999c0,0,38,39,38,129c0,148-250,274-250,160c0-224,342-468.199,342-527.999
	c0-21.932-130.646-48.855-223.396-69.501C1708.054,137.688,1739.279,0,1662.96,0c-52.854,0-170.854,90-170.854,158
	c0,37.328,77.143,71.04,146.737,97.497c-27.535,47.153-259.243,435.504-421.756,435.504c-23.436,0-29.109-28.504-21.973-69.701
	c98.263-22.199,322.545-178.106,322.545-338.354c0-42.607-21.488-70.944-65.572-70.944c-176.473,0-335.562,194.178-362.869,355.283
	c-42.217,42.025-166.65,159.715-236.113,159.715c-23.436,0-29.109-28.504-21.973-69.701
	c98.264-22.199,322.545-178.105,322.545-338.354c0-42.607-21.487-70.943-65.571-70.943c-194,0-365.001,234.664-365.001,402.085
	c0,145.578,43.102,151.914,79,151.914c85.501,0,230.252-129.082,283.049-179.014c1.816,136.918,45.783,143.016,80.934,143.016
	c246.019,0,500.019-469.001,500.019-469.001s0.093-17.322-16.366-37.392c52.732,19.754,98.366,35.103,98.366,44.392
	c0,22-266,235.616-266,483.999c0,34,4,118,102,118c131,0,364-88,364-240S1786.105,510.999,1786.105,510.999z M1501.308,266.785
	c0.891,4.992,1.352,10.391,1.352,16.16c0,5.196-0.258,10.363-0.752,15.5c0,0-0.876-12.591-8.756-26.828L1501.308,266.785z
	 M1452.087,227.001c16.871,0,29.67,4.839,38.039,14.384c3.655,4.169,6.537,9.341,8.614,15.367l-11.114,6.338
	c-12.896-17.138-37.327-33.561-83.515-31.058C1387.747,232.919,1436.194,227.001,1452.087,227.001z M1371.323,335.633
	c27.119-16.328,64.991-30.393,110.782-24.581c0,0-20.53,8.804-42.646,21.101c1.089,3.177,1.627,6.616,1.627,9.849
	c0,93.11-163.361,187.18-230.602,221.955C1240.146,478.443,1302.454,374.479,1371.323,335.633z M1136.067,300.548
	c1.14,5.526,1.727,11.587,1.727,18.12c0,5.195-0.258,10.363-0.752,15.5c0,0-0.944-13.567-9.686-28.46L1136.067,300.548z
	 M1087.222,262.723c16.871,0,29.67,4.84,38.039,14.385c3.28,3.74,5.931,8.297,7.943,13.546l-11.626,6.63
	c-13.187-16.57-37.52-31.957-82.331-29.529C1022.881,268.641,1071.328,262.723,1087.222,262.723z M954.659,414.462
	c0,0,9.793-12.052,27.678-25.742c16.723-13.397,34.055-23.37,51.588-28.595c22.234-8.113,48.547-12.68,78.181-8.919
	c0,0-16.807,7.206-36.386,17.686c0.929,2.967,1.386,6.126,1.386,9.108c0,93.109-163.362,187.179-230.603,221.954
	C868.332,537.013,907.853,464.074,954.659,414.462z M812.97,678.765c-0.744,14.23,0.533,26.151,3.817,35.695l-4.86,3.191
	C810.65,707.484,810.848,694.705,812.97,678.765z M813.39,725.814l6.385-4.386c1.424,2.728,3.053,5.211,4.91,7.418
	c6.953,8.262,16.607,12.629,27.922,12.629c16.982,0,33.986-4.744,52.982-12.207C905.589,729.269,827.737,785.437,813.39,725.814z
	 M1219.104,716.925c-26.007,4.455-50.492-7.191-41.654-73.635c-1.184,22.619,2.735,39.412,11.715,50.082
	c6.954,8.262,16.61,12.629,27.923,12.629c2.09,0,4.181-0.073,6.275-0.213L1219.104,716.925z M1230.685,714.002l4.779-9.748
	c11.063-2.016,22.426-5.674,34.607-10.46C1270.071,693.794,1251.415,707.253,1230.685,714.002z M1654.653,193.803
	c-31.361-7.467-52.548-13.647-52.548-17.803c0-16,20-68,48-68C1670.464,108,1661.218,163.506,1654.653,193.803z M1626.005,25.953
	C1610.151,28.4,1653.485,15,1662.96,15c10.155,0,17.334,3.096,22.592,9.742c1.67,2.111,3.362,4.869,4.922,8.44l-11.43,11.82
	C1668.825,31.418,1652.405,21.877,1626.005,25.953z M1694.052,44.148c2.995,12.536,4.378,31.004,1.809,58.233
	c0,0,0.339-27.306-11.754-49.476L1694.052,44.148z M1871.538,287.693c9.455-9.768-35.79-36.316-35.79-36.316
	c45.263,12.353,58.661,19.27,63.357,22.623c-1.49,4.336-5.026,14.818-20.939,34.027c-16.14,19.482-38.768,43.295-64.964,70.869
	c-17.549,18.469-36.582,38.501-56.062,59.774l-14.122-6.331C1775.09,392.312,1817.08,343.953,1871.538,287.693z M1738.974,437.412
	l14.089,5.726c-2.613,2.868-5.234,5.761-7.857,8.673l-15.879-2.121C1732.432,445.691,1735.648,441.6,1738.974,437.412z
	 M1719.106,463h16.089c-29.864,33.645-59.864,69.875-86.364,107.583C1648.831,570.583,1665.682,533.52,1719.106,463z
	 M1816.136,530.05c13.221,2.785,29.312,7.469,45.217,15.336c46.382,22.942,70.479,62.053,71.692,116.275l-13.103,11.997
	C1918.237,630.058,1895.682,576.437,1816.136,530.05z M1897.976,758.208c0,0,18.482-27.948,21.624-67.687l12.815-11.173
	C1929.598,706.84,1918.055,733.311,1897.976,758.208z"/>
</svg>
